<?xml version="1.0" standalone="no"?>
<!DOCTYPE svg PUBLIC "-//W3C//DTD SVG 20010904//EN"
 "http://www.w3.org/TR/2001/REC-SVG-20010904/DTD/svg10.dtd">
<svg version="1.0" xmlns="http://www.w3.org/2000/svg"
 width="402.000000pt" height="265.000000pt" viewBox="0 0 402.000000 265.000000"
 preserveAspectRatio="xMidYMid meet">

<g transform="translate(0.000000,265.000000) scale(0.100000,-0.100000)"
fill="#000000" stroke="none">
<path d="M2306 1669 l-65 -64 62 -67 63 -67 69 69 c42 42 65 73 60 78 -6 5
-36 32 -67 62 l-58 53 -64 -64z"/>
<path d="M2840 1535 c-19 -7 -53 -14 -75 -15 -87 -3 -86 -4 85 -175 88 -88
160 -164 160 -170 0 -6 -105 -115 -233 -243 l-232 -232 -83 83 c-45 45 -82 86
-82 91 0 4 65 74 145 154 l145 147 -143 142 -142 142 -95 -16 c-52 -9 -99 -19
-103 -23 -5 -5 8 -26 30 -48 21 -21 74 -76 118 -121 l80 -81 -80 -80 c-44 -44
-85 -79 -91 -78 -7 2 -103 92 -215 202 l-202 198 -46 -5 c-25 -3 -47 -10 -49
-16 -2 -6 -14 -11 -27 -11 -13 0 -26 -6 -29 -12 -5 -10 -7 -10 -12 0 -8 18
-24 15 -24 -5 0 -10 204 -222 453 -471 l452 -452 365 365 365 365 -190 190
c-104 104 -194 190 -200 189 -5 0 -26 -7 -45 -14z"/>
<path d="M1520 1305 c0 -9 -9 -15 -25 -15 -14 0 -25 -4 -25 -10 0 -5 -20 -10
-45 -10 -30 0 -45 -4 -45 -13 0 -7 -22 -20 -50 -29 -27 -9 -50 -12 -50 -8 0 5
8 11 18 13 15 4 15 5 -1 6 -11 1 -21 -7 -24 -19 -3 -11 -12 -20 -20 -20 -7 0
-20 -6 -27 -12 -11 -10 14 -40 128 -156 78 -79 143 -148 145 -154 2 -5 -34
-48 -80 -94 l-84 -84 -190 189 c-104 104 -198 193 -208 198 -13 7 -36 4 -74
-9 -31 -10 -62 -18 -68 -18 -7 0 -18 -7 -25 -15 -11 -13 -10 -19 6 -34 10 -10
140 -143 288 -295 l270 -277 153 153 153 153 299 -305 300 -305 68 67 68 68
-453 446 c-248 245 -452 451 -452 456 0 5 27 37 60 70 33 34 60 65 60 70 0 4
-16 8 -35 8 -24 0 -35 -5 -35 -15z"/>
</g>
</svg>
