<svg xmlns="http://www.w3.org/2000/svg" version="1.1" xmlns:xlink="http://www.w3.org/1999/xlink" xmlns:svgjs="http://svgjs.dev/svgjs" width="1920" height="1080" preserveAspectRatio="none" viewBox="0 0 1920 1080"><g mask="url(&quot;#SvgjsMask1026&quot;)" fill="none"><rect width="1920" height="1080" x="0" y="0" fill="url(&quot;#SvgjsLinearGradient1027&quot;)"></rect><path d="M1920 0L964.53 0L1920 352.67z" fill="rgba(255, 255, 255, .1)"></path><path d="M964.53 0L1920 352.67L1920 752.3199999999999L591.19 0z" fill="rgba(255, 255, 255, .075)"></path><path d="M591.19 0L1920 752.3199999999999L1920 877.56L342.44000000000005 0z" fill="rgba(255, 255, 255, .05)"></path><path d="M342.44000000000005 0L1920 877.56L1920 941.4599999999999L178.42000000000004 0z" fill="rgba(255, 255, 255, .025)"></path><path d="M0 1080L552.9 1080L0 1052.9z" fill="rgba(0, 0, 0, .1)"></path><path d="M0 1052.9L552.9 1080L864.21 1080L0 894.0400000000001z" fill="rgba(0, 0, 0, .075)"></path><path d="M0 894.04L864.21 1080L905.87 1080L0 871.0999999999999z" fill="rgba(0, 0, 0, .05)"></path><path d="M0 871.1L905.87 1080L1060.1 1080L0 779.72z" fill="rgba(0, 0, 0, .025)"></path></g><defs><mask id="SvgjsMask1026"><rect width="1920" height="1080" fill="#ffffff"></rect></mask><linearGradient x1="10.94%" y1="-19.44%" x2="89.06%" y2="119.44%" gradientUnits="userSpaceOnUse" id="SvgjsLinearGradient1027"><stop stop-color="#0e2a47" offset="0"></stop><stop stop-color="#00459e" offset="1"></stop></linearGradient></defs></svg>